<svg xmlns="http://www.w3.org/2000/svg" width="134" height="40" viewBox="0 0 134 40">
  <g id="그룹_116" data-name="그룹 116" transform="translate(-1756 -23)">
    <g id="사각형_184" data-name="사각형 184" transform="translate(1756 23)" fill="#e22786" stroke="#191919" stroke-width="2">
      <rect width="134" height="40" rx="20" stroke="none"/>
      <rect x="1" y="1" width="132" height="38" rx="19" fill="none"/>
    </g>
    <text id="MY" transform="translate(1841 49)" fill="#fff" font-size="18" font-family="Montserrat-SemiBold, Montserrat" font-weight="600"><tspan x="0" y="0">MY</tspan></text>
    <g id="그룹_28" data-name="그룹 28" transform="translate(-76 1)">
      <circle id="타원_37" data-name="타원 37" cx="14" cy="14" r="14" transform="translate(1840 56) rotate(-90)" fill="#fff"/>
      <path id="합치기_4" data-name="합치기 4" d="M6,12.75A.75.75,0,0,1,5.25,12V6.751H0A.75.75,0,0,1-.75,6,.75.75,0,0,1,0,5.251H5.25V0a.75.75,0,0,1,1.5,0V5.251H12a.75.75,0,0,1,0,1.5H6.75V12A.75.75,0,0,1,6,12.75Z" transform="translate(1848 36)" fill="#191919"/>
    </g>
  </g>
</svg>
