<svg xmlns="http://www.w3.org/2000/svg" xmlns:xlink="http://www.w3.org/1999/xlink" width="196" height="36.813" viewBox="0 0 196 36.813">
  <defs>
    <clipPath id="clip-path">
      <rect id="사각형_409" data-name="사각형 409" width="196" height="36.813" fill="none"/>
    </clipPath>
  </defs>
  <g id="그룹_130" data-name="그룹 130" transform="translate(0 0)">
    <g id="그룹_127" data-name="그룹 127" transform="translate(0 0)" clip-path="url(#clip-path)">
      <path id="패스_85" data-name="패스 85" d="M28.244,4.6A15.112,15.112,0,0,1,33.1,15.9a14.939,14.939,0,0,1-4.858,11.123,16.465,16.465,0,0,1-11.688,4.676,16.265,16.265,0,0,1-11.7-4.676A14.933,14.933,0,0,1,0,15.9,15.106,15.106,0,0,1,4.86,4.6,16.389,16.389,0,0,1,16.556,0,16.59,16.59,0,0,1,28.244,4.6M36.32,11.3H61.408v6.912H58.253v7.418H51V18.213H46.732v7.418H39.481V18.213H36.32ZM10.7,10.017A8.4,8.4,0,0,0,8.427,15.9,8.277,8.277,0,0,0,10.7,21.683a7.658,7.658,0,0,0,5.851,2.567A7.555,7.555,0,0,0,22.3,21.683,8.111,8.111,0,0,0,24.678,15.9,8.225,8.225,0,0,0,22.3,10.017a7.546,7.546,0,0,0-5.748-2.579A7.649,7.649,0,0,0,10.7,10.017" transform="translate(0 0)" fill="#e5338b"/>
      <rect id="사각형_408" data-name="사각형 408" width="25.088" height="6.922" transform="translate(91.072 11.13)" fill="#e5338b"/>
      <path id="패스_86" data-name="패스 86" d="M233,.738V7.649h-2.99v16.3H233v6.921h-25.09V23.948H210.9V7.649h-2.986V.738Zm-14.854,23.21h4.61V7.65h-4.61Zm68.544-12.6V37.135h-7.25V18.269H261.6V11.352ZM244.607.738V31.961h-7.254V19h-4.61v-6.9h4.61V.738Zm5.463,0h7.25V31.961h-7.25Z" transform="translate(-90.692 -0.322)" fill="#e5338b"/>
      <path id="패스_87" data-name="패스 87" d="M133.9,29.649l-3.065-9.415,8.017-5.832h-9.912l-3.061-9.421L122.82,14.4h-9.908l8.016,5.832-3.06,9.415,8.009-5.823Z" transform="translate(-49.253 -2.173)" fill="#542087"/>
    </g>
  </g>
</svg>
