<?xml version="1.0" encoding="utf-8"?>
<!-- Generator: Adobe Illustrator 26.3.1, SVG Export Plug-In . SVG Version: 6.00 Build 0)  -->
<svg version="1.1" id="Layer_1" xmlns="http://www.w3.org/2000/svg" xmlns:xlink="http://www.w3.org/1999/xlink" x="0px" y="0px"
	 viewBox="0 0 29.5 22.9" style="enable-background:new 0 0 29.5 22.9;" xml:space="preserve">
<style type="text/css">
	.st0{fill:#E22786;}
	.st1{fill:#191919;}
	.st2{enable-background:new    ;}
	.st3{fill:#FFFFFF;}
</style>
<g id="그룹_80" transform="translate(-341.254 -30.876)">
	<g id="그룹_79" transform="translate(342.491 38.718) rotate(-16)">
		<g id="합치기_6">
			<path class="st0" d="M3.6,14.4c-2,0-3.6-1.6-3.6-3.6C0,10.1,0.2,9.5,0.5,9c-0.6-1.1-0.6-2.5,0-3.6c-1-1.7-0.4-3.9,1.3-4.9
				C2.4,0.2,3,0,3.6,0l16.8,0c2,0,3.6,1.6,3.6,3.6c0,0.6-0.2,1.2-0.5,1.8c0.6,1.1,0.6,2.5,0,3.6c1,1.7,0.4,3.9-1.3,4.9
				c-0.5,0.3-1.2,0.5-1.8,0.5L3.6,14.4z"/>
			<path class="st1" d="M2.3,15.2c-0.7-0.2-1.4-0.6-2-1.2C-0.5,13.2-1,12-1,10.8c0-0.6,0.1-1.2,0.4-1.8c-0.5-1.1-0.5-2.4,0-3.6
				c-0.9-2.1-0.1-4.6,1.9-5.8C2-0.8,2.8-1,3.6-1l16.8,0c1.2,0,2.4,0.5,3.3,1.4c0.9,0.9,1.3,2,1.3,3.3c0,0.6-0.1,1.2-0.4,1.8
				c0.5,1.1,0.5,2.4,0,3.6c0.9,2.1,0.1,4.6-1.9,5.8c-0.7,0.4-1.5,0.6-2.3,0.6l-16.8,0C3.2,15.4,2.7,15.3,2.3,15.2z M21.1,1.1
				C20.9,1,20.6,1,20.4,1L3.6,1C3.1,1,2.7,1.1,2.3,1.3c-1.2,0.7-1.7,2.3-1,3.5l0.3,0.5L1.3,5.9c-0.5,0.8-0.5,1.8,0,2.6L1.6,9
				L1.3,9.5C1.1,9.9,1,10.3,1,10.8c0,0.7,0.3,1.3,0.8,1.8c0.5,0.5,1.1,0.8,1.8,0.8l16.8,0c0.4,0,0.9-0.1,1.3-0.3
				c1.2-0.7,1.7-2.3,1-3.5L22.3,9l0.3-0.5c0.5-0.8,0.5-1.8,0-2.6l-0.3-0.5l0.3-0.5C22.8,4.5,23,4.1,23,3.6c0-0.7-0.3-1.3-0.8-1.8
				C21.9,1.4,21.5,1.2,21.1,1.1z"/>
		</g>
		<g class="st2">
			<path class="st3" d="M7.9,5.3c0.2,0.1,0.4,0.3,0.5,0.4C8.5,6,8.6,6.2,8.6,6.4c0,0.3-0.1,0.5-0.2,0.7C8.3,7.3,8.1,7.4,7.9,7.5
				C7.6,7.7,7.4,7.7,7.1,7.7l-0.7,0l0,1l-0.8,0l0-3.5l1.5,0C7.4,5.2,7.6,5.2,7.9,5.3z M7.6,6.9c0.1-0.1,0.2-0.3,0.2-0.4
				c0-0.2-0.1-0.3-0.2-0.5C7.4,5.9,7.3,5.8,7,5.8l-0.7,0l0,1.2L7,7C7.3,7,7.4,7,7.6,6.9z"/>
			<path class="st3" d="M11.3,7.9l-1.6,0L9.4,8.7l-0.8,0l1.6-3.5l0.8,0l1.6,3.5l-0.9,0L11.3,7.9z M11,7.3L10.5,6L9.9,7.3L11,7.3z"/>
			<path class="st3" d="M13.2,8.6c-0.3-0.1-0.5-0.2-0.6-0.3l0.3-0.6C13,7.8,13.1,7.9,13.3,8C13.6,8,13.8,8.1,14,8.1
				c0.2,0,0.4,0,0.5-0.1s0.2-0.2,0.2-0.3c0-0.1,0-0.2-0.1-0.2c-0.1-0.1-0.1-0.1-0.2-0.1c-0.1,0-0.2-0.1-0.4-0.1
				c-0.3-0.1-0.5-0.1-0.7-0.2c-0.2-0.1-0.3-0.2-0.4-0.3c-0.1-0.1-0.2-0.3-0.2-0.6c0-0.2,0.1-0.4,0.2-0.6c0.1-0.2,0.3-0.3,0.5-0.4
				c0.2-0.1,0.5-0.1,0.8-0.1c0.2,0,0.4,0,0.7,0.1s0.4,0.1,0.6,0.2L15,6c-0.3-0.2-0.6-0.3-1-0.3c-0.2,0-0.4,0-0.5,0.1
				c-0.1,0.1-0.2,0.2-0.2,0.3c0,0.1,0.1,0.2,0.2,0.3c0.1,0.1,0.3,0.1,0.6,0.2c0.3,0.1,0.5,0.1,0.7,0.2C15,6.9,15.1,7,15.3,7.1
				c0.1,0.1,0.2,0.3,0.2,0.6c0,0.2-0.1,0.4-0.2,0.5c-0.1,0.2-0.3,0.3-0.5,0.4c-0.2,0.1-0.5,0.1-0.8,0.1C13.7,8.7,13.4,8.7,13.2,8.6z
				"/>
			<path class="st3" d="M16.4,8.6c-0.3-0.1-0.5-0.2-0.6-0.3L16,7.7c0.1,0.1,0.3,0.2,0.5,0.3C16.7,8,17,8.1,17.2,8.1
				c0.2,0,0.4,0,0.5-0.1c0.1-0.1,0.2-0.2,0.2-0.3c0-0.1,0-0.2-0.1-0.2c-0.1-0.1-0.1-0.1-0.2-0.1c-0.1,0-0.2-0.1-0.4-0.1
				c-0.3-0.1-0.5-0.1-0.7-0.2C16.2,7,16.1,6.9,16,6.8c-0.1-0.1-0.2-0.3-0.2-0.6c0-0.2,0.1-0.4,0.2-0.6c0.1-0.2,0.3-0.3,0.5-0.4
				c0.2-0.1,0.5-0.1,0.8-0.1c0.2,0,0.4,0,0.7,0.1c0.2,0.1,0.4,0.1,0.6,0.2L18.2,6c-0.3-0.2-0.6-0.3-1-0.3c-0.2,0-0.4,0-0.5,0.1
				c-0.1,0.1-0.2,0.2-0.2,0.3c0,0.1,0.1,0.2,0.2,0.3c0.1,0.1,0.3,0.1,0.6,0.2c0.3,0.1,0.5,0.1,0.7,0.2c0.2,0.1,0.3,0.2,0.4,0.3
				c0.1,0.1,0.2,0.3,0.2,0.6c0,0.2-0.1,0.4-0.2,0.5c-0.1,0.2-0.3,0.3-0.5,0.4s-0.5,0.1-0.8,0.1C16.9,8.7,16.6,8.7,16.4,8.6z"/>
		</g>
	</g>
</g>
</svg>
