<?xml version="1.0" encoding="utf-8"?>
<!-- Generator: Adobe Illustrator 26.3.1, SVG Export Plug-In . SVG Version: 6.00 Build 0)  -->
<svg version="1.1" id="Layer_1" xmlns="http://www.w3.org/2000/svg" xmlns:xlink="http://www.w3.org/1999/xlink" x="0px" y="0px"
	 viewBox="0 0 134 40" style="enable-background:new 0 0 134 40;" xml:space="preserve">
<style type="text/css">
	.st0{fill:#FFFFFF;}
	.st1{fill:none;stroke:#191919;stroke-width:2;}
	.st2{fill:#191919;}
	.st3{font-family:'Montserrat-SemiBold';}
	.st4{font-size:18px;}
	.st5{fill:#E22786;}
</style>
<g id="그룹_46" transform="translate(-1756 -23)">
	<g id="사각형_184" transform="translate(1756 23)">
		<path class="st0" d="M20,0h94c11,0,20,9,20,20l0,0c0,11-9,20-20,20H20C9,40,0,31,0,20l0,0C0,9,9,0,20,0z"/>
		<path class="st1" d="M20,1h94c10.5,0,19,8.5,19,19l0,0c0,10.5-8.5,19-19,19H20C9.5,39,1,30.5,1,20l0,0C1,9.5,9.5,1,20,1z"/>
	</g>
	<text transform="matrix(1 0 0 1 1773 49)" class="st2 st3 st4">LOGIN</text>
	<g id="그룹_28" transform="translate(13 1)">
		<circle id="타원_37" class="st5" cx="1854" cy="42" r="14"/>
		<path id="합치기_4" class="st0" d="M1854,48.8c-0.4,0-0.8-0.3-0.8-0.8v-5.2h-5.2c-0.4,0-0.8-0.3-0.8-0.8c0,0,0,0,0,0
			c0-0.4,0.3-0.7,0.8-0.7h5.2V36c0-0.4,0.3-0.8,0.8-0.8s0.8,0.3,0.8,0.8v5.3h5.2c0.4,0,0.8,0.3,0.8,0.8s-0.3,0.8-0.8,0.8h-5.2V48
			C1854.8,48.4,1854.4,48.8,1854,48.8z"/>
	</g>
</g>
</svg>
